<svg width="16" height="17" viewBox="0 0 16 17" fill="none" xmlns="http://www.w3.org/2000/svg">
<g clip-path="url(#clip0_6566_913)">
<g clip-path="url(#clip1_6566_913)">
<g clip-path="url(#clip2_6566_913)">
<mask id="mask0_6566_913" style="mask-type:luminance" maskUnits="userSpaceOnUse" x="0" y="0" width="16" height="17">
<path d="M16 0.750977H0V16.751H16V0.750977Z" fill="white"/>
</mask>
<g mask="url(#mask0_6566_913)">
<path d="M8.00078 16.7564L7.53411 16.3564C6.89078 15.8178 1.27344 10.9664 1.27344 7.41776C1.27344 5.63356 1.98222 3.92244 3.24383 2.66082C4.50545 1.3992 6.21658 0.69043 8.00078 0.69043C9.78498 0.69043 11.4961 1.3992 12.7578 2.66082C14.0194 3.92244 14.7281 5.63356 14.7281 7.41776C14.7281 10.9664 9.11078 15.8178 8.47011 16.3591L8.00078 16.7564ZM8.00078 2.1451C6.60287 2.14668 5.26267 2.70271 4.27419 3.69118C3.28572 4.67965 2.7297 6.01985 2.72811 7.41776C2.72811 9.6471 6.18411 13.2084 8.00078 14.8384C9.81744 13.2078 13.2735 9.64443 13.2735 7.41776C13.2719 6.01985 12.7159 4.67965 11.7274 3.69118C10.7389 2.70271 9.39869 2.14668 8.00078 2.1451Z" fill="#3BB77E"/>
<path d="M8.00065 10.0843C7.47323 10.0843 6.95766 9.92791 6.51913 9.6349C6.0806 9.34188 5.73881 8.9254 5.53697 8.43813C5.33514 7.95086 5.28233 7.41469 5.38522 6.8974C5.48812 6.38012 5.74209 5.90497 6.11503 5.53203C6.48797 5.15909 6.96313 4.90511 7.48041 4.80222C7.99769 4.69932 8.53387 4.75213 9.02114 4.95397C9.50841 5.1558 9.92489 5.49759 10.2179 5.93612C10.5109 6.37465 10.6673 6.89023 10.6673 7.41764C10.6673 8.12489 10.3863 8.80317 9.88627 9.30326C9.38617 9.80336 8.7079 10.0843 8.00065 10.0843ZM8.00065 6.08431C7.73694 6.08431 7.47916 6.16251 7.25989 6.30902C7.04063 6.45553 6.86973 6.66377 6.76881 6.9074C6.6679 7.15103 6.64149 7.41912 6.69294 7.67776C6.74438 7.93641 6.87137 8.17398 7.05784 8.36045C7.24431 8.54692 7.48189 8.67391 7.74053 8.72536C7.99917 8.77681 8.26726 8.7504 8.5109 8.64948C8.75453 8.54857 8.96277 8.37767 9.10928 8.1584C9.25579 7.93914 9.33399 7.68135 9.33399 7.41764C9.33399 7.06402 9.19351 6.72488 8.94346 6.47484C8.69341 6.22479 8.35427 6.08431 8.00065 6.08431Z" fill="#3BB77E"/>
</g>
</g>
</g>
</g>
<defs>
<clipPath id="clip0_6566_913">
<rect width="16" height="17" fill="white"/>
</clipPath>
<clipPath id="clip1_6566_913">
<rect width="16" height="17" fill="white"/>
</clipPath>
<clipPath id="clip2_6566_913">
<rect width="16" height="17" fill="white"/>
</clipPath>
</defs>
</svg>
