<svg width="16" height="16" viewBox="0 0 16 16" fill="none" xmlns="http://www.w3.org/2000/svg">
<g clip-path="url(#clip0_6566_942)">
<g clip-path="url(#clip1_6566_942)">
<g clip-path="url(#clip2_6566_942)">
<mask id="mask0_6566_942" style="mask-type:luminance" maskUnits="userSpaceOnUse" x="0" y="0" width="16" height="16">
<path d="M15.7444 0.818359H0.685547V15.8772H15.7444V0.818359Z" fill="white"/>
</mask>
<g mask="url(#mask0_6566_942)">
<path d="M6.96005 15.8772H0.685547V14.6223H6.96005V15.8772ZM5.70516 12.1125H0.685547V13.3674H5.70516V12.1125ZM4.45026 9.60271H0.685547V10.8576H4.45026V9.60271ZM8.21496 0.818359C6.2187 0.820518 4.30482 1.61448 2.89325 3.02606C1.48167 4.43763 0.687706 6.35151 0.685547 8.34777H1.94045C1.94045 7.10679 2.30844 5.89368 2.9979 4.86184C3.68735 3.83 4.66729 3.02579 5.8138 2.55088C6.96033 2.07598 8.22192 1.95172 9.43909 2.19382C10.6562 2.43593 11.7742 3.03351 12.6517 3.91102C13.5293 4.78853 14.1268 5.90654 14.3689 7.12368C14.611 8.34081 14.4867 9.60243 14.0119 10.749C13.537 11.8954 12.7327 12.8754 11.7009 13.5649C10.669 14.2543 9.45594 14.6223 8.21496 14.6223V15.8772C10.2119 15.8772 12.127 15.0839 13.539 13.6719C14.9511 12.2598 15.7444 10.3447 15.7444 8.34777C15.7444 6.35085 14.9511 4.43572 13.539 3.02367C12.127 1.61163 10.2119 0.818359 8.21496 0.818359ZM7.58751 5.21052V8.60754L9.65368 10.6738L10.5409 9.78652L8.84241 8.08801V5.21052H7.58751Z" fill="#3BB77E"/>
</g>
</g>
</g>
</g>
<defs>
<clipPath id="clip0_6566_942">
<rect width="16" height="16" fill="white"/>
</clipPath>
<clipPath id="clip1_6566_942">
<rect width="16" height="16" fill="white"/>
</clipPath>
<clipPath id="clip2_6566_942">
<rect width="16" height="16" fill="white"/>
</clipPath>
</defs>
</svg>
